<?xml version="1.0" encoding="utf-8"?>
<!-- Generator: Adobe Illustrator 19.2.0, SVG Export Plug-In . SVG Version: 6.00 Build 0)  -->
<svg version="1.1"
	 id="svg3021" inkscape:version="0.48.4 r9939" sodipodi:docname="PawPrint4.ai" xmlns:cc="http://creativecommons.org/ns#" xmlns:dc="http://purl.org/dc/elements/1.1/" xmlns:inkscape="http://www.inkscape.org/namespaces/inkscape" xmlns:rdf="http://www.w3.org/1999/02/22-rdf-syntax-ns#" xmlns:sodipodi="http://sodipodi.sourceforge.net/DTD/sodipodi-0.dtd" xmlns:svg="http://www.w3.org/2000/svg"
	 xmlns="http://www.w3.org/2000/svg" xmlns:xlink="http://www.w3.org/1999/xlink" x="0px" y="0px" viewBox="0 0 595.3 841.9"
	 style="enable-background:new 0 0 595.3 841.9;" xml:space="preserve">
<style type="text/css">
	.st0{fill:#2C2C2B;}
</style>
<sodipodi:namedview  bordercolor="#666666" borderopacity="1" gridtolerance="10" guidetolerance="10" id="namedview3035" inkscape:current-layer="svg3021" inkscape:cx="372.04749" inkscape:cy="433.62355" inkscape:pageopacity="0" inkscape:pageshadow="2" inkscape:window-height="708" inkscape:window-maximized="1" inkscape:window-width="1024" inkscape:window-x="-4" inkscape:window-y="-4" inkscape:zoom="0.46846973" objecttolerance="10" pagecolor="#ffffff" showgrid="false">
	</sodipodi:namedview>
<g id="g3023" transform="translate(269.81467,-650.62904)">
	<path id="path3025" inkscape:connector-curvature="0" class="st0" d="M-163.1,1184.6c20.9,13.6,30.9,35.2,22.5,48.1
		c-8.5,13-32.2,12.4-53.1-1.2c-20.9-13.6-30.9-35.2-22.5-48.1C-207.8,1170.5-184,1171-163.1,1184.6z"/>
	<path id="path3027" inkscape:connector-curvature="0" class="st0" d="M-45.7,1109.5c3.6,24.7,19,42.8,34.3,40.6
		c15.3-2.2,24.8-24.1,21.2-48.7c-3.6-24.7-19-42.8-34.3-40.6C-39.8,1063-49.3,1084.8-45.7,1109.5z"/>
	<path id="path3029" inkscape:connector-curvature="0" class="st0" d="M-137.2,1113.9c17.6,17.7,22.9,40.9,11.9,51.8
		c-11,10.9-34.1,5.4-51.7-12.3c-17.6-17.7-22.9-40.9-11.9-51.8C-177.9,1090.8-154.8,1096.3-137.2,1113.9L-137.2,1113.9z"/>
	<path id="path3031" inkscape:connector-curvature="0" class="st0" d="M-121.1,1103.6c8.7,23.3,27.5,37.9,42,32.5
		c14.5-5.4,19.2-28.7,10.5-52.1c-8.7-23.4-27.5-37.9-42-32.5C-125.1,1057-129.8,1080.3-121.1,1103.6L-121.1,1103.6z"/>
	<path id="path3033" inkscape:connector-curvature="0" class="st0" d="M-109.2,1192.7c0.3,7.4-2.7,34.4-8.8,46.8
		c-6.1,12.4-12.7,29.2,2.4,48.3c15.1,19.1,41.6,14.4,54.9,4.8c13.3-9.6,37.6-28.7,57.8-38c20.2-9.3,42.3-26.2,35.3-49.2
		c-7-23-27.2-27.6-41.3-28.6c-14.1-0.9-43.6-11.8-54.7-18.4C-74.7,1151.9-111.1,1150.2-109.2,1192.7z"/>
</g>
<sodipodi:namedview  bordercolor="#666666" borderopacity="1" gridtolerance="10" guidetolerance="10" id="namedview3035" inkscape:current-layer="svg3021" inkscape:cx="372.04749" inkscape:cy="433.62355" inkscape:pageopacity="0" inkscape:pageshadow="2" inkscape:window-height="708" inkscape:window-maximized="1" inkscape:window-width="1024" inkscape:window-x="-4" inkscape:window-y="-4" inkscape:zoom="0.46846973" objecttolerance="10" pagecolor="#ffffff" showgrid="false">
	</sodipodi:namedview>
<g id="g3023_1_" transform="translate(269.81467,-650.62904)">
	<path id="path3025_1_" inkscape:connector-curvature="0" class="st0" d="M127.5,909.1c-5.5,24.3-22.2,41.2-37.3,37.8
		c-15.1-3.4-22.8-25.9-17.3-50.2c5.5-24.3,22.2-41.2,37.3-37.8C125.2,862.3,133,884.8,127.5,909.1z"/>
	<path id="path3027_1_" inkscape:connector-curvature="0" class="st0" d="M238.7,993.1c-21.9,12-33.6,32.6-26.2,46.2
		c7.4,13.6,31.2,14.9,53,2.9c21.9-12,33.6-32.6,26.2-46.2C284.3,982.5,260.6,981.2,238.7,993.1z"/>
	<path id="path3029_1_" inkscape:connector-curvature="0" class="st0" d="M202.8,908.9c-10.5,22.6-30.4,35.6-44.4,29.1
		c-14-6.5-16.9-30.1-6.4-52.7c10.5-22.6,30.4-35.6,44.4-29.1C210.4,862.6,213.3,886.3,202.8,908.9L202.8,908.9z"/>
	<path id="path3031_1_" inkscape:connector-curvature="0" class="st0" d="M218,920.4c-18.9,16.3-26,39-15.9,50.7
		c10.1,11.7,33.6,8,52.5-8.2c18.9-16.3,26-39,15.9-50.7C260.4,900.5,236.9,904.1,218,920.4L218,920.4z"/>
	<path id="path3033_1_" inkscape:connector-curvature="0" class="st0" d="M138.6,962.4c-6.8,2.9-33.2,9.4-46.9,8
		c-13.8-1.4-31.8-1.8-44.5,19c-12.6,20.8,0.9,44,14.5,53.2c13.6,9.1,40,25.3,55.7,41c15.7,15.7,39.3,30.6,58.4,16
		c19.2-14.6,16.5-35.1,12.5-48.7c-4-13.5-4-44.9-1.7-57.6C188.8,980.6,177.8,945.9,138.6,962.4z"/>
</g>
</svg>
